<svg xmlns="http://www.w3.org/2000/svg" width="320" height="320" viewBox="0 0 320 320" role="img" aria-labelledby="title desc">
  <title id="title">CogentLM logo placeholder</title>
  <desc id="desc">A placeholder mark for the CogentLM project.</desc>
  <rect width="320" height="320" rx="48" fill="#101820"/>
  <circle cx="160" cy="160" r="105" fill="none" stroke="#5dd6c8" stroke-width="16"/>
  <path d="M105 164c0-36 23-62 57-62 22 0 40 10 51 28l-24 15c-6-10-15-16-27-16-17 0-29 14-29 35s12 35 29 35c12 0 21-6 27-16l24 15c-11 18-29 28-51 28-34 0-57-26-57-62z" fill="#f4f7fb"/>
  <path d="M189 105h28v110h-28z" fill="#5dd6c8"/>
</svg>
