<?xml version="1.0" encoding="UTF-8" standalone="no"?>
<!DOCTYPE svg PUBLIC "-//W3C//DTD SVG 1.1//EN" "http://www.w3.org/Graphics/SVG/1.1/DTD/svg11.dtd">
<svg width="100%" height="100%" viewBox="0 0 1000 1000" version="1.1" xmlns="http://www.w3.org/2000/svg" xmlns:xlink="http://www.w3.org/1999/xlink" xml:space="preserve" xmlns:serif="http://www.serif.com/" style="fill-rule:evenodd;clip-rule:evenodd;stroke-linejoin:round;stroke-miterlimit:2;">
    <g id="logo_sippy.png" transform="matrix(1.28245,0,0,1.28245,-120.819511,-101.299966)">
        <path d="M213.503,430.503C269.164,368.58 267.84,367.478 323.81,305.776C327.905,301.261 326.485,300.657 326.512,294.5C326.651,263.139 322.953,244.622 343.458,240.281C351.695,238.537 448.522,251.859 453.502,251.536C456.253,251.358 506.128,229.884 510.673,227.927C562.18,205.75 565.438,205.998 570.511,206.384C577.137,206.888 588.745,161.152 604.791,149.905C608.399,147.377 720.872,95.088 736.727,87.997C765.679,75.048 787.383,121.561 769.177,137.113C763.908,141.614 655.338,192.534 645.37,197.209C643.604,198.038 642.132,198.728 633.472,218.489C632.147,221.512 635.101,220.265 671.401,234.733C684.15,239.815 679.21,248.161 679.919,290.498C679.991,294.813 680.99,294.594 702.94,339.292C742.805,420.472 747.902,431.152 749.116,435.61C751.241,443.411 750.7,443.561 750.795,683.499C750.807,712.052 754.08,733.822 732.284,745.076C622.228,801.899 523.848,854.584 519.523,854.846C515.187,855.108 442.75,827.329 265.574,763.292C226.387,749.129 212.117,746.776 208.926,721.455C208.74,719.98 208.877,489.656 208.889,469.5C208.908,437.623 208.039,436.788 213.503,430.503Z" style="fill:rgb(29,37,47);"/>
        <path d="M514.583,837.5C514.426,841.3 516.112,843.899 512.434,842.82C495.528,837.864 496.339,835.605 305.572,767.307C230.526,740.438 230.324,740.421 226.844,737.14C216.534,727.419 218.468,725.409 218.38,672.5C218.323,637.693 218.356,445.602 218.394,445.465C218.841,443.849 219.748,444.87 257.487,454.548C262.168,455.748 512.702,523.446 513.356,523.843C515.066,524.882 514.493,525.483 514.62,577.5C514.87,680.16 514.621,816.7 514.583,837.5Z" style="fill:url(#_Linear1);"/>
        <path d="M524.046,838.505C523.974,835.451 523.968,564.839 524.048,558.501C524.45,526.408 522.42,525.728 526.586,519.563C543.676,494.271 597.752,417.404 652.034,336.187C671,307.811 673.416,303.622 674.459,303.699C676.16,303.825 702.687,359.793 705.026,364.727C726.457,409.943 739.635,432.919 741.005,443.567C741.668,448.713 741.307,637.625 741.275,654.499C741.146,721.89 742.517,723.592 733.459,732.459C728.643,737.174 620.686,791.488 526.404,841.304C524.154,842.493 524.395,840.971 524.046,838.505Z" style="fill:url(#_Linear2);"/>
        <path d="M462.616,500.059C319.157,460.224 318.904,461.211 306.446,457.695C268.097,446.869 223.365,436.377 223.256,434.532C223.154,432.81 322.092,322.407 330.766,312.728C333.515,309.661 339.443,311.726 349.552,313.018C456.253,326.652 456.198,326.4 465.45,327.73C467.214,327.983 467.838,331.931 470.012,340.608C473.436,354.275 512.424,509.903 512.698,511.474C513.404,515.522 510.105,513.019 462.616,500.059Z" style="fill:url(#_Linear3);"/>
        <path d="M634.39,311.113C659.341,303.69 659.19,303.117 661.443,302.926C661.951,302.883 662.42,303.513 658.886,308.762C637.997,339.782 599.227,397.566 573.966,433.831C569.92,439.64 526.697,501.693 523.742,506.691C521.219,510.959 520.963,505.831 517.351,491.537C516.591,488.53 481.275,346.592 480.142,342.561C478.012,334.978 483.083,343.413 492.672,347.002C506.597,352.214 514.379,346.138 634.39,311.113Z" style="fill:url(#_Linear4);"/>
        <path d="M508.583,296.928C510.531,296.406 510.471,296.4 554.446,283.313C659.463,252.059 659.212,251.502 668.434,249.142C671.044,248.474 670.511,251.248 670.462,270.5C670.417,288.572 671.403,290.482 667.533,291.614C604.462,310.061 604.58,310.068 541.601,328.819C503.484,340.169 498.465,346.411 475.796,322.244C474.278,320.627 474.505,320.46 468.403,295.521C463.161,274.097 462.231,273.931 463.195,273.035C464.203,272.099 465.286,274.623 466.806,276.184C483.271,293.095 488.797,300.073 508.583,296.928Z" style="fill:url(#_Linear5);"/>
        <path d="M425.546,313.089C424.267,312.929 411.493,311.342 409.553,311.086C337.091,301.524 336.507,301.769 335.961,300.387C335.776,299.917 336.015,261.538 336.074,259.466C336.232,253.934 342.576,248.978 348.504,249.392C352.941,249.702 424.838,257.942 431.474,258.702C447.733,260.565 449.686,259.106 451.023,264.604C457.5,291.239 462.679,310.242 463.695,315.469C464.278,318.471 461.908,317.787 425.546,313.089Z" style="fill:url(#_Linear6);"/>
        <path d="M567.029,218.276C564.722,223.108 539.341,276.276 537.266,278.223C537.035,278.44 507.039,288.378 501.499,288.23C488.302,287.878 484.855,281.206 467.154,262.817C464.383,259.939 460.78,259.094 464.566,257.626C479.916,251.676 565.855,213.828 567.547,215.446C567.988,215.867 567.884,216.435 567.868,216.524C567.676,217.573 567.207,217.304 567.029,218.276Z" style="fill:rgb(194,93,93);"/>
        <path d="M425.574,596.465C427.989,603.543 426.734,603.675 427.011,650.496C427.134,671.296 400.638,667.637 400.312,651.503C399.252,599.022 400.682,597.192 403.542,593.532C406.346,589.944 417.929,584.014 425.574,596.465Z" style="fill:rgb(31,38,47);"/>
        <path d="M330.337,572.605C333.405,578.878 332.439,579.167 332.624,627.498C332.694,645.721 306.098,645.293 305.639,627.496C304.311,576.02 305.853,574.206 308.799,570.742C309.305,570.147 312.208,566.732 317.478,566.273C324.674,565.647 329.614,571.715 330.337,572.605Z" style="fill:rgb(30,37,46);"/>
        <g id="Straw">
            <path d="M673.093,128.106C689.426,141.004 706.184,153.295 707.424,154.6C707.932,155.136 707.999,155.997 708.507,156.532C691.843,165.035 691.885,164.891 674.842,172.847C666.205,164.728 646.562,151.384 639.579,143.764C648.763,139.578 661.175,133.243 673.093,128.106Z" style="fill:rgb(250,111,118);"/>
            <path d="M639.579,143.764C646.562,151.384 666.205,164.728 674.842,172.847C665.436,177.406 665.538,177.465 658.558,180.625C642.428,187.93 639.195,189.742 637.572,190.652C636.519,188.723 636.564,188.707 636.434,188.569C630.022,181.736 613.273,159.869 611.323,157.323C615.891,154.549 615.989,154.82 639.579,143.764Z" style="fill:rgb(252,242,230);"/>
            <path d="M611.323,157.323C613.273,159.869 630.022,181.736 636.434,188.569C636.564,188.707 636.519,188.723 637.572,190.652C631.701,196.599 626.231,214.017 621.345,221.462C615.253,215.479 596.86,190.75 592.328,187.348C599.189,175.328 601.413,162.995 611.323,157.323Z" style="fill:rgb(250,114,119);"/>
            <path d="M592.328,187.348C596.86,190.75 615.253,215.479 621.345,221.462C619.483,226.561 612.445,240.37 606.739,252.695C600.248,247.196 601.018,246.481 577.452,218.494C578.459,215.922 579.971,212.062 592.328,187.348Z" style="fill:rgb(252,242,230);"/>
            <path d="M577.452,218.494C601.018,246.481 600.248,247.196 606.739,252.695C603.992,258.177 604.083,258.718 597.556,260.684C591.877,262.394 577.159,266.692 575.384,267.211C566.144,257.924 565.951,254.963 561.269,251.308C562.591,248.697 562.453,248.651 577.452,218.494Z" style="fill:rgb(250,113,119);"/>
            <path d="M757.598,123.382C756.319,122.081 748.626,114.251 746.34,103.539C743.815,91.701 754.255,93.931 762.164,106.698C765.092,111.424 773.677,133.811 757.598,123.382Z" style="fill:rgb(244,106,113);"/>
            <path d="M561.269,251.308C565.951,254.963 566.144,257.924 575.384,267.211C552.295,273.8 549.352,275.405 550.63,272.547C551.405,270.812 551.749,270.995 561.269,251.308Z" style="fill:rgb(250,241,230);"/>
            <path d="M707.437,112.117C716.32,119.922 737.109,135.769 743.249,140.077C712.585,154.871 711.355,155.372 708.507,156.532C707.999,155.997 707.932,155.136 707.424,154.6C706.184,153.295 689.426,141.004 673.093,128.106C675.817,126.778 695.461,117.203 707.437,112.117Z" style="fill:rgb(252,241,229);"/>
            <path d="M707.437,112.117C733.055,99.74 735.802,98.41 736.616,99.42C736.646,99.457 737.039,114.262 747.67,126.356C753.159,132.601 757.86,133.054 753.81,134.98C744.044,139.625 744.098,139.677 743.249,140.077C737.109,135.769 716.32,119.922 707.437,112.117Z" style="fill:rgb(250,111,118);"/>
        </g>
        <path d="M617.51,251.505C618.398,249.646 627.665,230.059 627.891,229.792C628.736,228.795 635.797,231.372 636.455,231.612C659.572,240.049 660.908,239.478 660.607,241.546C660.446,242.655 621.844,253.259 618.449,254.191C616.355,254.767 616.626,253.484 617.51,251.505Z" style="fill:rgb(196,95,93);"/>
    </g>
    <defs>
        <linearGradient id="_Linear1" x1="0" y1="0" x2="1" y2="0" gradientUnits="userSpaceOnUse" gradientTransform="matrix(274.055838,411.899567,-411.899567,274.055838,218.289199,396.856758)"><stop offset="0" style="stop-color:rgb(255,84,137);stop-opacity:1"/><stop offset="1" style="stop-color:rgb(255,148,104);stop-opacity:1"/></linearGradient>
        <linearGradient id="_Linear2" x1="0" y1="0" x2="1" y2="0" gradientUnits="userSpaceOnUse" gradientTransform="matrix(125.964406,325.224228,-325.224228,125.964406,570.726689,361.198477)"><stop offset="0" style="stop-color:rgb(255,96,146);stop-opacity:1"/><stop offset="0.42" style="stop-color:rgb(255,114,133);stop-opacity:1"/><stop offset="1" style="stop-color:rgb(255,151,104);stop-opacity:1"/></linearGradient>
        <linearGradient id="_Linear3" x1="0" y1="0" x2="1" y2="0" gradientUnits="userSpaceOnUse" gradientTransform="matrix(423.82087,134.756267,-134.756267,423.82087,208.829365,363.462632)"><stop offset="0" style="stop-color:rgb(255,84,139);stop-opacity:1"/><stop offset="1" style="stop-color:rgb(255,148,103);stop-opacity:1"/></linearGradient>
        <linearGradient id="_Linear4" x1="0" y1="0" x2="1" y2="0" gradientUnits="userSpaceOnUse" gradientTransform="matrix(198.029374,79.917781,-79.917781,198.029374,463.763138,348.253275)"><stop offset="0" style="stop-color:rgb(255,84,137);stop-opacity:1"/><stop offset="1" style="stop-color:rgb(255,146,104);stop-opacity:1"/></linearGradient>
        <linearGradient id="_Linear5" x1="0" y1="0" x2="1" y2="0" gradientUnits="userSpaceOnUse" gradientTransform="matrix(207.683521,0,0,207.683521,462.859076,302.923949)"><stop offset="0" style="stop-color:rgb(255,84,139);stop-opacity:1"/><stop offset="0.11" style="stop-color:rgb(255,93,135);stop-opacity:1"/><stop offset="0.24" style="stop-color:rgb(255,115,123);stop-opacity:1"/><stop offset="0.57" style="stop-color:rgb(255,141,108);stop-opacity:1"/><stop offset="1" style="stop-color:rgb(255,148,104);stop-opacity:1"/></linearGradient>
        <linearGradient id="_Linear6" x1="0" y1="0" x2="1" y2="0" gradientUnits="userSpaceOnUse" gradientTransform="matrix(230.808733,27.497378,-27.497378,230.808733,335.892103,276.200873)"><stop offset="0" style="stop-color:rgb(255,85,137);stop-opacity:1"/><stop offset="1" style="stop-color:rgb(255,148,103);stop-opacity:1"/></linearGradient>
    </defs>
</svg>
